<?xml version="1.0" encoding="UTF-8" standalone="no"?>
<svg
   xmlns:dc="http://purl.org/dc/elements/1.1/"
   xmlns:cc="http://creativecommons.org/ns#"
   xmlns:rdf="http://www.w3.org/1999/02/22-rdf-syntax-ns#"
   xmlns:svg="http://www.w3.org/2000/svg"
   xmlns="http://www.w3.org/2000/svg"
   xmlns:sodipodi="http://sodipodi.sourceforge.net/DTD/sodipodi-0.dtd"
   xmlns:inkscape="http://www.inkscape.org/namespaces/inkscape"
   enable-background="new 0 0 141.732 141.732"
   height="141.732px"
   id="Livello_1"
   version="1.1"
   viewBox="0 0 141.732 141.732"
   width="141.732px"
   x="0px"
   xml:space="preserve"
   y="0px"
   inkscape:version="0.48.2 r9819"
   sodipodi:docname="1389185463_94.svg"><metadata
     id="metadata11"><rdf:RDF><cc:Work
         rdf:about=""><dc:format>image/svg+xml</dc:format><dc:type
           rdf:resource="http://purl.org/dc/dcmitype/StillImage" /><dc:title></dc:title></cc:Work></rdf:RDF></metadata><defs
     id="defs9" /><sodipodi:namedview
     pagecolor="#ffffff"
     bordercolor="#666666"
     borderopacity="1"
     objecttolerance="10"
     gridtolerance="10"
     guidetolerance="10"
     inkscape:pageopacity="0"
     inkscape:pageshadow="2"
     inkscape:window-width="1280"
     inkscape:window-height="920"
     id="namedview7"
     showgrid="false"
     inkscape:zoom="4.709655"
     inkscape:cx="89.783946"
     inkscape:cy="20.789719"
     inkscape:window-x="-8"
     inkscape:window-y="-8"
     inkscape:window-maximized="1"
     inkscape:current-layer="Livello_1" /><g
     id="Livello_110"
     style="fill:#ce412b;fill-opacity:1"
     transform="matrix(0.15724198,0,0,0.15724198,16.84589,117.37344)"
     inkscape:export-filename="C:\xampp\htdocs\rustmapmarks\icons\markerToolIcon.png"
     inkscape:export-xdpi="90"
     inkscape:export-ydpi="90"><path
       d="m 95.35,50.645 c 0,13.98 -11.389,25.322 -25.438,25.322 -14.051,0 -25.438,-11.342 -25.438,-25.322 0,-13.984 11.389,-25.322 25.438,-25.322 C 83.964,25.322 95.35,36.66 95.35,50.645 m 26.393,0 C 121.743,22.674 98.966,0 70.866,0 42.768,0 19.989,22.674 19.989,50.645 c 0,12.298 4.408,23.574 11.733,32.345 l 39.188,56.283 39.761,-57.104 c 1.428,-1.779 2.736,-3.654 3.916,-5.625 l 0.402,-0.574 h -0.066 c 4.33,-7.454 6.82,-16.096 6.82,-25.325"
       id="path4"
       style="fill:#ce412b;fill-opacity:1"
       inkscape:connector-curvature="0" /></g><g
     id="Livello_1_1_" /><g
     id="Livello_110-4"
     style="fill:#3f8e2b;fill-opacity:1"
     transform="matrix(0.15724198,0,0,0.15724198,39.904432,117.56991)"
     inkscape:export-filename="C:\xampp\htdocs\rustmapmarks\icons\markerToolIconActive.png"
     inkscape:export-xdpi="90"
     inkscape:export-ydpi="90"><path
       d="m 95.35,50.645 c 0,13.98 -11.389,25.322 -25.438,25.322 -14.051,0 -25.438,-11.342 -25.438,-25.322 0,-13.984 11.389,-25.322 25.438,-25.322 C 83.964,25.322 95.35,36.66 95.35,50.645 m 26.393,0 C 121.743,22.674 98.966,0 70.866,0 42.768,0 19.989,22.674 19.989,50.645 c 0,12.298 4.408,23.574 11.733,32.345 l 39.188,56.283 39.761,-57.104 c 1.428,-1.779 2.736,-3.654 3.916,-5.625 l 0.402,-0.574 h -0.066 c 4.33,-7.454 6.82,-16.096 6.82,-25.325"
       id="path4-0"
       style="fill:#3f8e2b;fill-opacity:1"
       inkscape:connector-curvature="0" /></g><path
     style="fill:#ce412b;fill-opacity:1;stroke:none"
     d="m 97.764842,127.28943 -0.494514,-6.13196 5.044032,-4.45061 2.76927,2.76927 3.8572,0.89012 -0.39561,6.13196 -4.45062,2.67037 -0.1978,6.32976 -7.714399,1.87915 -5.934154,-0.79122 3.362687,-4.35171 z"
     id="path3800"
     inkscape:connector-curvature="0"
     inkscape:export-filename="C:\xampp\htdocs\rustmapmarks\icons\AreaToolIcon.png"
     inkscape:export-xdpi="90"
     inkscape:export-ydpi="90" /><path
     style="fill:#3f8e2b;fill-opacity:1;stroke:none"
     d="m 71.329251,127.46815 -0.494514,-6.13196 5.044031,-4.45061 2.769276,2.76927 3.8572,0.89012 -0.39561,6.13196 -4.45062,2.67037 -0.1978,6.32976 -7.714404,1.87915 -5.934154,-0.79122 3.362687,-4.35171 z"
     id="path3800-9"
     inkscape:connector-curvature="0"
     inkscape:export-filename="C:\xampp\htdocs\rustmapmarks\icons\AreaToolIconActive.png"
     inkscape:export-xdpi="90"
     inkscape:export-ydpi="90" /><flowRoot
     xml:space="preserve"
     id="flowRoot3999"
     style="font-size:13px;font-style:normal;font-variant:normal;font-weight:900;font-stretch:normal;line-height:125%;letter-spacing:0px;word-spacing:0px;fill:#3f8e2b;fill-opacity:1;stroke:none;font-family:Orbitron;-inkscape-font-specification:Orbitron Heavy"
     transform="matrix(1.5444424,0,0,1.9981444,24.371916,-21.936876)"
     inkscape:export-filename="C:\xampp\htdocs\rustmapmarks\icons\LabelToolIconActive.png"
     inkscape:export-xdpi="90"
     inkscape:export-ydpi="90"><flowRegion
       id="flowRegion4001"><rect
         id="rect4003"
         width="28.45219"
         height="21.657637"
         x="39.49334"
         y="48.731552"
         style="font-style:normal;font-variant:normal;font-weight:900;font-stretch:normal;fill:#3f8e2b;fill-opacity:1;font-family:Orbitron;-inkscape-font-specification:Orbitron Heavy" /></flowRegion><flowPara
       id="flowPara4005">A</flowPara></flowRoot><flowRoot
     xml:space="preserve"
     id="flowRoot3999-2"
     style="font-size:13px;font-style:normal;font-variant:normal;font-weight:900;font-stretch:normal;line-height:125%;letter-spacing:0px;word-spacing:0px;fill:#ce412b;fill-opacity:1;stroke:none;font-family:Orbitron;-inkscape-font-specification:Orbitron Heavy"
     transform="matrix(1.5444424,0,0,1.9981444,45.260217,-22.424754)"
     inkscape:export-filename="C:\xampp\htdocs\rustmapmarks\icons\LabelToolIcon.png"
     inkscape:export-xdpi="90"
     inkscape:export-ydpi="90"><flowRegion
       id="flowRegion4001-3"><rect
         id="rect4003-2"
         width="28.45219"
         height="21.657637"
         x="39.49334"
         y="48.731552"
         style="font-style:normal;font-variant:normal;font-weight:900;font-stretch:normal;fill:#ce412b;fill-opacity:1;font-family:Orbitron;-inkscape-font-specification:Orbitron Heavy" /></flowRegion><flowPara
       id="flowPara4005-2">A</flowPara></flowRoot></svg>